<?xml version="1.0" encoding="UTF-8" standalone="no"?>
<!DOCTYPE svg PUBLIC "-//W3C//DTD SVG 1.1//EN"
 "http://www.w3.org/Graphics/SVG/1.1/DTD/svg11.dtd">
<!-- Generated by graphviz version 2.43.0 (0)
 -->
<!-- Title: %3 Pages: 1 -->
<svg width="216pt" height="90pt"
 viewBox="0.00 0.00 216.00 90.44" xmlns="http://www.w3.org/2000/svg" xmlns:xlink="http://www.w3.org/1999/xlink">
<g id="graph0" class="graph" transform="scale(0.48 0.48) rotate(0) translate(4 184)">
<title>%3</title>
<polygon fill="white" stroke="transparent" points="-4,4 -4,-184 445,-184 445,4 -4,4"/>
<!-- 0 -->
<g id="node1" class="node">
<title>0</title>
<ellipse fill="black" stroke="black" cx="288" cy="-162" rx="18" ry="18"/>
</g>
<!-- 1 -->
<g id="node2" class="node">
<title>1</title>
<ellipse fill="black" stroke="black" cx="153" cy="-90" rx="18" ry="18"/>
</g>
<!-- 0&#45;&#45;1 -->
<g id="edge7" class="edge">
<title>0&#45;&#45;1</title>
<path fill="none" stroke="black" d="M271.62,-153.62C250.22,-143.83 211.73,-125.71 180,-108 175.94,-105.73 171.63,-103.12 167.68,-100.64"/>
</g>
<!-- 8 -->
<g id="node9" class="node">
<title>8</title>
<ellipse fill="white" stroke="black" cx="207" cy="-90" rx="18" ry="18"/>
</g>
<!-- 0&#45;&#45;8 -->
<g id="edge8" class="edge">
<title>0&#45;&#45;8</title>
<path fill="none" stroke="black" d="M274.62,-149.44C259.53,-136.39 235.12,-115.3 220.13,-102.34"/>
</g>
<!-- 9 -->
<g id="node10" class="node">
<title>9</title>
<ellipse fill="white" stroke="black" cx="261" cy="-90" rx="18" ry="18"/>
</g>
<!-- 0&#45;&#45;9 -->
<g id="edge9" class="edge">
<title>0&#45;&#45;9</title>
<path fill="none" stroke="black" d="M281.74,-144.76C277.38,-133.46 271.58,-118.44 267.23,-107.15"/>
</g>
<!-- 10 -->
<g id="node11" class="node">
<title>10</title>
<ellipse fill="white" stroke="black" cx="315" cy="-90" rx="18" ry="18"/>
</g>
<!-- 0&#45;&#45;10 -->
<g id="edge10" class="edge">
<title>0&#45;&#45;10</title>
<path fill="none" stroke="black" d="M294.26,-144.76C298.62,-133.46 304.42,-118.44 308.77,-107.15"/>
</g>
<!-- 11 -->
<g id="node12" class="node">
<title>11</title>
<ellipse fill="white" stroke="black" cx="369" cy="-90" rx="18" ry="18"/>
</g>
<!-- 0&#45;&#45;11 -->
<g id="edge11" class="edge">
<title>0&#45;&#45;11</title>
<path fill="none" stroke="black" d="M301.38,-149.44C316.47,-136.39 340.88,-115.3 355.87,-102.34"/>
</g>
<!-- 12 -->
<g id="node13" class="node">
<title>12</title>
<ellipse fill="white" stroke="black" cx="423" cy="-90" rx="18" ry="18"/>
</g>
<!-- 0&#45;&#45;12 -->
<g id="edge12" class="edge">
<title>0&#45;&#45;12</title>
<path fill="none" stroke="black" d="M304.38,-153.62C325.78,-143.83 364.27,-125.71 396,-108 400.06,-105.73 404.37,-103.12 408.32,-100.64"/>
</g>
<!-- 2 -->
<g id="node3" class="node">
<title>2</title>
<ellipse fill="white" stroke="black" cx="18" cy="-18" rx="18" ry="18"/>
</g>
<!-- 1&#45;&#45;2 -->
<g id="edge1" class="edge">
<title>1&#45;&#45;2</title>
<path fill="none" stroke="black" d="M136.62,-81.62C115.22,-71.83 76.73,-53.71 45,-36 40.94,-33.73 36.63,-31.12 32.68,-28.64"/>
</g>
<!-- 3 -->
<g id="node4" class="node">
<title>3</title>
<ellipse fill="white" stroke="black" cx="72" cy="-18" rx="18" ry="18"/>
</g>
<!-- 1&#45;&#45;3 -->
<g id="edge2" class="edge">
<title>1&#45;&#45;3</title>
<path fill="none" stroke="black" d="M139.62,-77.44C124.53,-64.39 100.12,-43.3 85.13,-30.34"/>
</g>
<!-- 4 -->
<g id="node5" class="node">
<title>4</title>
<ellipse fill="white" stroke="black" cx="126" cy="-18" rx="18" ry="18"/>
</g>
<!-- 1&#45;&#45;4 -->
<g id="edge3" class="edge">
<title>1&#45;&#45;4</title>
<path fill="none" stroke="black" d="M146.74,-72.76C142.38,-61.46 136.58,-46.44 132.23,-35.15"/>
</g>
<!-- 5 -->
<g id="node6" class="node">
<title>5</title>
<ellipse fill="white" stroke="black" cx="180" cy="-18" rx="18" ry="18"/>
</g>
<!-- 1&#45;&#45;5 -->
<g id="edge4" class="edge">
<title>1&#45;&#45;5</title>
<path fill="none" stroke="black" d="M159.26,-72.76C163.62,-61.46 169.42,-46.44 173.77,-35.15"/>
</g>
<!-- 6 -->
<g id="node7" class="node">
<title>6</title>
<ellipse fill="white" stroke="black" cx="234" cy="-18" rx="18" ry="18"/>
</g>
<!-- 1&#45;&#45;6 -->
<g id="edge5" class="edge">
<title>1&#45;&#45;6</title>
<path fill="none" stroke="black" d="M166.38,-77.44C181.47,-64.39 205.88,-43.3 220.87,-30.34"/>
</g>
<!-- 7 -->
<g id="node8" class="node">
<title>7</title>
<ellipse fill="white" stroke="black" cx="288" cy="-18" rx="18" ry="18"/>
</g>
<!-- 1&#45;&#45;7 -->
<g id="edge6" class="edge">
<title>1&#45;&#45;7</title>
<path fill="none" stroke="black" d="M167.63,-79.26C171.58,-76.77 175.89,-74.19 180,-72 214.76,-53.46 226.24,-54.54 261,-36 265.11,-33.81 269.42,-31.23 273.37,-28.74"/>
</g>
</g>
</svg>
