<?xml version="1.0" encoding="UTF-8" standalone="no"?>
<!DOCTYPE svg PUBLIC "-//W3C//DTD SVG 1.1//EN"
 "http://www.w3.org/Graphics/SVG/1.1/DTD/svg11.dtd">
<!-- Generated by graphviz version 2.43.0 (0)
 -->
<!-- Title: %3 Pages: 1 -->
<svg width="216pt" height="142pt"
 viewBox="0.00 0.00 216.00 142.18" xmlns="http://www.w3.org/2000/svg" xmlns:xlink="http://www.w3.org/1999/xlink">
<g id="graph0" class="graph" transform="scale(0.55 0.55) rotate(0) translate(4 256)">
<title>%3</title>
<polygon fill="white" stroke="transparent" points="-4,4 -4,-256 391,-256 391,4 -4,4"/>
<!-- 0 -->
<g id="node1" class="node">
<title>0</title>
<ellipse fill="black" stroke="black" cx="234" cy="-234" rx="18" ry="18"/>
</g>
<!-- 1 -->
<g id="node2" class="node">
<title>1</title>
<ellipse fill="white" stroke="black" cx="99" cy="-162" rx="18" ry="18"/>
</g>
<!-- 0&#45;&#45;1 -->
<g id="edge1" class="edge">
<title>0&#45;&#45;1</title>
<path fill="none" stroke="black" d="M217.62,-225.62C196.22,-215.83 157.73,-197.71 126,-180 121.94,-177.73 117.63,-175.12 113.68,-172.64"/>
</g>
<!-- 2 -->
<g id="node3" class="node">
<title>2</title>
<ellipse fill="black" stroke="black" cx="153" cy="-162" rx="18" ry="18"/>
</g>
<!-- 0&#45;&#45;2 -->
<g id="edge10" class="edge">
<title>0&#45;&#45;2</title>
<path fill="none" stroke="black" d="M220.62,-221.44C205.53,-208.39 181.12,-187.3 166.13,-174.34"/>
</g>
<!-- 11 -->
<g id="node12" class="node">
<title>11</title>
<ellipse fill="white" stroke="black" cx="207" cy="-162" rx="18" ry="18"/>
</g>
<!-- 0&#45;&#45;11 -->
<g id="edge11" class="edge">
<title>0&#45;&#45;11</title>
<path fill="none" stroke="black" d="M227.74,-216.76C223.38,-205.46 217.58,-190.44 213.23,-179.15"/>
</g>
<!-- 12 -->
<g id="node13" class="node">
<title>12</title>
<ellipse fill="white" stroke="black" cx="261" cy="-162" rx="18" ry="18"/>
</g>
<!-- 0&#45;&#45;12 -->
<g id="edge12" class="edge">
<title>0&#45;&#45;12</title>
<path fill="none" stroke="black" d="M240.26,-216.76C244.62,-205.46 250.42,-190.44 254.77,-179.15"/>
</g>
<!-- 13 -->
<g id="node14" class="node">
<title>13</title>
<ellipse fill="white" stroke="black" cx="315" cy="-162" rx="18" ry="18"/>
</g>
<!-- 0&#45;&#45;13 -->
<g id="edge13" class="edge">
<title>0&#45;&#45;13</title>
<path fill="none" stroke="black" d="M247.38,-221.44C262.47,-208.39 286.88,-187.3 301.87,-174.34"/>
</g>
<!-- 14 -->
<g id="node15" class="node">
<title>14</title>
<ellipse fill="white" stroke="black" cx="369" cy="-162" rx="18" ry="18"/>
</g>
<!-- 0&#45;&#45;14 -->
<g id="edge14" class="edge">
<title>0&#45;&#45;14</title>
<path fill="none" stroke="black" d="M250.38,-225.62C271.78,-215.83 310.27,-197.71 342,-180 346.06,-177.73 350.37,-175.12 354.32,-172.64"/>
</g>
<!-- 3 -->
<g id="node4" class="node">
<title>3</title>
<ellipse fill="white" stroke="black" cx="18" cy="-90" rx="18" ry="18"/>
</g>
<!-- 2&#45;&#45;3 -->
<g id="edge2" class="edge">
<title>2&#45;&#45;3</title>
<path fill="none" stroke="black" d="M138.37,-151.26C134.42,-148.77 130.11,-146.19 126,-144 91.24,-125.46 79.76,-126.54 45,-108 40.89,-105.81 36.58,-103.23 32.63,-100.74"/>
</g>
<!-- 4 -->
<g id="node5" class="node">
<title>4</title>
<ellipse fill="white" stroke="black" cx="72" cy="-90" rx="18" ry="18"/>
</g>
<!-- 2&#45;&#45;4 -->
<g id="edge3" class="edge">
<title>2&#45;&#45;4</title>
<path fill="none" stroke="black" d="M139.62,-149.44C124.53,-136.39 100.12,-115.3 85.13,-102.34"/>
</g>
<!-- 5 -->
<g id="node6" class="node">
<title>5</title>
<ellipse fill="white" stroke="black" cx="126" cy="-90" rx="18" ry="18"/>
</g>
<!-- 2&#45;&#45;5 -->
<g id="edge4" class="edge">
<title>2&#45;&#45;5</title>
<path fill="none" stroke="black" d="M146.74,-144.76C142.38,-133.46 136.58,-118.44 132.23,-107.15"/>
</g>
<!-- 6 -->
<g id="node7" class="node">
<title>6</title>
<ellipse fill="white" stroke="black" cx="180" cy="-90" rx="18" ry="18"/>
</g>
<!-- 2&#45;&#45;6 -->
<g id="edge5" class="edge">
<title>2&#45;&#45;6</title>
<path fill="none" stroke="black" d="M159.26,-144.76C163.62,-133.46 169.42,-118.44 173.77,-107.15"/>
</g>
<!-- 7 -->
<g id="node8" class="node">
<title>7</title>
<ellipse fill="black" stroke="black" cx="234" cy="-90" rx="18" ry="18"/>
</g>
<!-- 2&#45;&#45;7 -->
<g id="edge8" class="edge">
<title>2&#45;&#45;7</title>
<path fill="none" stroke="black" d="M166.38,-149.44C181.47,-136.39 205.88,-115.3 220.87,-102.34"/>
</g>
<!-- 10 -->
<g id="node11" class="node">
<title>10</title>
<ellipse fill="white" stroke="black" cx="288" cy="-90" rx="18" ry="18"/>
</g>
<!-- 2&#45;&#45;10 -->
<g id="edge9" class="edge">
<title>2&#45;&#45;10</title>
<path fill="none" stroke="black" d="M167.63,-151.26C171.58,-148.77 175.89,-146.19 180,-144 214.76,-125.46 226.24,-126.54 261,-108 265.11,-105.81 269.42,-103.23 273.37,-100.74"/>
</g>
<!-- 8 -->
<g id="node9" class="node">
<title>8</title>
<ellipse fill="white" stroke="black" cx="207" cy="-18" rx="18" ry="18"/>
</g>
<!-- 7&#45;&#45;8 -->
<g id="edge6" class="edge">
<title>7&#45;&#45;8</title>
<path fill="none" stroke="black" d="M227.74,-72.76C223.38,-61.46 217.58,-46.44 213.23,-35.15"/>
</g>
<!-- 9 -->
<g id="node10" class="node">
<title>9</title>
<ellipse fill="white" stroke="black" cx="261" cy="-18" rx="18" ry="18"/>
</g>
<!-- 7&#45;&#45;9 -->
<g id="edge7" class="edge">
<title>7&#45;&#45;9</title>
<path fill="none" stroke="black" d="M240.26,-72.76C244.62,-61.46 250.42,-46.44 254.77,-35.15"/>
</g>
</g>
</svg>
