<?xml version="1.0" encoding="UTF-8" standalone="no"?>
<!DOCTYPE svg PUBLIC "-//W3C//DTD SVG 1.1//EN"
 "http://www.w3.org/Graphics/SVG/1.1/DTD/svg11.dtd">
<!-- Generated by graphviz version 2.43.0 (0)
 -->
<!-- Title: %3 Pages: 1 -->
<svg width="216pt" height="179pt"
 viewBox="0.00 0.00 216.00 178.85" xmlns="http://www.w3.org/2000/svg" xmlns:xlink="http://www.w3.org/1999/xlink">
<g id="graph0" class="graph" transform="scale(0.69 0.69) rotate(0) translate(4 256)">
<title>%3</title>
<polygon fill="white" stroke="transparent" points="-4,4 -4,-256 310,-256 310,4 -4,4"/>
<!-- 0 -->
<g id="node1" class="node">
<title>0</title>
<ellipse fill="black" stroke="black" cx="153" cy="-234" rx="18" ry="18"/>
</g>
<!-- 1 -->
<g id="node2" class="node">
<title>1</title>
<ellipse fill="white" stroke="black" cx="18" cy="-162" rx="18" ry="18"/>
</g>
<!-- 0&#45;&#45;1 -->
<g id="edge1" class="edge">
<title>0&#45;&#45;1</title>
<path fill="none" stroke="black" d="M136.62,-225.62C115.22,-215.83 76.73,-197.71 45,-180 40.94,-177.73 36.63,-175.12 32.68,-172.64"/>
</g>
<!-- 2 -->
<g id="node3" class="node">
<title>2</title>
<ellipse fill="white" stroke="black" cx="72" cy="-162" rx="18" ry="18"/>
</g>
<!-- 0&#45;&#45;2 -->
<g id="edge2" class="edge">
<title>0&#45;&#45;2</title>
<path fill="none" stroke="black" d="M139.62,-221.44C124.53,-208.39 100.12,-187.3 85.13,-174.34"/>
</g>
<!-- 3 -->
<g id="node4" class="node">
<title>3</title>
<ellipse fill="black" stroke="black" cx="126" cy="-162" rx="18" ry="18"/>
</g>
<!-- 0&#45;&#45;3 -->
<g id="edge7" class="edge">
<title>0&#45;&#45;3</title>
<path fill="none" stroke="black" d="M146.74,-216.76C142.38,-205.46 136.58,-190.44 132.23,-179.15"/>
</g>
<!-- 8 -->
<g id="node9" class="node">
<title>8</title>
<ellipse fill="white" stroke="black" cx="180" cy="-162" rx="18" ry="18"/>
</g>
<!-- 0&#45;&#45;8 -->
<g id="edge8" class="edge">
<title>0&#45;&#45;8</title>
<path fill="none" stroke="black" d="M159.26,-216.76C163.62,-205.46 169.42,-190.44 173.77,-179.15"/>
</g>
<!-- 9 -->
<g id="node10" class="node">
<title>9</title>
<ellipse fill="white" stroke="black" cx="234" cy="-162" rx="18" ry="18"/>
</g>
<!-- 0&#45;&#45;9 -->
<g id="edge9" class="edge">
<title>0&#45;&#45;9</title>
<path fill="none" stroke="black" d="M166.38,-221.44C181.47,-208.39 205.88,-187.3 220.87,-174.34"/>
</g>
<!-- 10 -->
<g id="node11" class="node">
<title>10</title>
<ellipse fill="white" stroke="black" cx="288" cy="-162" rx="18" ry="18"/>
</g>
<!-- 0&#45;&#45;10 -->
<g id="edge10" class="edge">
<title>0&#45;&#45;10</title>
<path fill="none" stroke="black" d="M169.38,-225.62C190.78,-215.83 229.27,-197.71 261,-180 265.06,-177.73 269.37,-175.12 273.32,-172.64"/>
</g>
<!-- 4 -->
<g id="node5" class="node">
<title>4</title>
<ellipse fill="black" stroke="black" cx="99" cy="-90" rx="18" ry="18"/>
</g>
<!-- 3&#45;&#45;4 -->
<g id="edge5" class="edge">
<title>3&#45;&#45;4</title>
<path fill="none" stroke="black" d="M119.74,-144.76C115.38,-133.46 109.58,-118.44 105.23,-107.15"/>
</g>
<!-- 7 -->
<g id="node8" class="node">
<title>7</title>
<ellipse fill="white" stroke="black" cx="153" cy="-90" rx="18" ry="18"/>
</g>
<!-- 3&#45;&#45;7 -->
<g id="edge6" class="edge">
<title>3&#45;&#45;7</title>
<path fill="none" stroke="black" d="M132.26,-144.76C136.62,-133.46 142.42,-118.44 146.77,-107.15"/>
</g>
<!-- 5 -->
<g id="node6" class="node">
<title>5</title>
<ellipse fill="white" stroke="black" cx="72" cy="-18" rx="18" ry="18"/>
</g>
<!-- 4&#45;&#45;5 -->
<g id="edge3" class="edge">
<title>4&#45;&#45;5</title>
<path fill="none" stroke="black" d="M92.74,-72.76C88.38,-61.46 82.58,-46.44 78.23,-35.15"/>
</g>
<!-- 6 -->
<g id="node7" class="node">
<title>6</title>
<ellipse fill="white" stroke="black" cx="126" cy="-18" rx="18" ry="18"/>
</g>
<!-- 4&#45;&#45;6 -->
<g id="edge4" class="edge">
<title>4&#45;&#45;6</title>
<path fill="none" stroke="black" d="M105.26,-72.76C109.62,-61.46 115.42,-46.44 119.77,-35.15"/>
</g>
</g>
</svg>
